<svg version="1.1" viewBox="0.0 0.0 112.0 28.0" fill="none" stroke="none" stroke-linecap="square" stroke-miterlimit="10" xmlns:xlink="http://www.w3.org/1999/xlink" xmlns="http://www.w3.org/2000/svg"><clipPath id="p.0"><path d="m0 0l112.0 0l0 28.0l-112.0 0l0 -28.0z" clip-rule="nonzero"/></clipPath><g clip-path="url(#p.0)"><path fill="#000000" fill-opacity="0.0" d="m0 0l112.0 0l0 28.0l-112.0 0z" fill-rule="evenodd"/><path fill="#ff9900" d="m82.1621 2.7262552l0.24950409 1.1659355l1.4346924 4.9809837l-3.3005981 0l1.3506165 -4.964715l0.26578522 -1.1822042zm-15.413544 -1.6838275l0 1.1659354l1.2502594 0.23318696l0 9.712512l-1.2828064 0.1654005l0 1.1008596l9.432594 0l0.48274994 -4.5634165l-1.5675735 -0.20064926l-1.0821228 3.2971563l-3.1324463 0.1681118l0 -9.679975l1.5811386 -0.23318696l0 -1.1659354zm14.43177 -0.048806548l-3.7155457 11.144173l-0.9682083 0.18166924l0.016273499 1.1008596l4.4342422 0l0 -1.1008596l-1.301796 -0.14913082l0.56681824 -2.0146284l3.9840393 0l0.56682587 1.9983587l-1.185173 0.1654005l0 1.1008596l5.250572 0l0 -1.1008596l-0.9166794 -0.1654005l-3.7318115 -11.160441zm8.729645 0.01626885l-0.4149475 3.3812122l1.4319763 0.20064926l0.9329529 -2.283064l3.9650574 -0.24945593l-0.9980469 1.1333976l-5.9828415 9.262407l0.55055237 0.9652853l9.3647995 0l0.366127 -3.7309933l-1.4319763 -0.3009739l-0.9682083 2.5650578l-4.748848 0.34978104l1.1661987 -1.0818796l5.849945 -9.22987l-0.41766357 -0.98155487zm9.281586 0.0325377l0 1.1659354l0.9166794 0.21691823l3.4497604 6.030326l0 3.6821861l-1.7167435 0.18166924l0 1.1008596l6.5144043 0l0 -1.1008596l-1.7655563 -0.18166924l0 -3.6984549l3.2002487 -6.046595l1.0170288 -0.18438053l0 -1.1659354l-4.2498245 0l0 1.1659354l1.2665405 0.23318696l-1.7167435 3.815049l-0.43393707 1.0818796l-0.4149475 -1.0818796l-1.9011612 -3.815049l1.0848312 -0.23318696l0 -1.1659354z" fill-rule="evenodd"/><path fill="#434343" d="m29.588287 1.0177066l-0.26849556 5.02987l1.5675812 0l0.69971466 -3.714783l2.0828724 -0.08134556l0 9.861799l-2.1154175 0.18167114l0 1.1008778l7.3144684 0l0 -1.1008778l-2.3161125 -0.18167114l0 -9.861799l2.0150719 0.08134556l0.7349739 3.714783l1.480793 0l-0.21425629 -5.02987z" fill-rule="evenodd"/><path fill="#434343" d="m41.801846 1.0177066l0 1.1659536l1.1987381 0.2169218l0 9.728934l-1.2339973 0.16540241l0 1.1008778l5.432289 0l0 -1.1008778l-1.3641739 -0.16540241l0 -4.330298l4.5644226 0l0 4.314029l-1.250267 0.18167114l0 1.1008778l5.3319397 0l0 -1.1008778l-1.2312813 -0.16540241l0 -9.728934l1.2312813 -0.2169218l0 -1.1659536l-5.3319397 0l0 1.1659536l1.250267 0.23319077l0 3.964243l-4.5644226 0l0 -3.980512l1.3641739 -0.2169218l0 -1.1659536z" fill-rule="evenodd"/><path fill="#434343" d="m55.66547 1.0177066l0 1.1659536l1.2990837 0.23319077l0 9.712666l-1.2828102 0.16540241l0 1.1008778l9.814999 0l0.398674 -3.1318064l-1.4157028 -0.40130424l-1.017025 2.1502352l-3.6477432 0.23319054l0 -4.53095l2.0476189 0.048807144l0.28476715 1.4506631l1.1499176 0l0 -4.181164l-1.1499176 0l-0.30104065 1.3666062l-2.0313454 0.048807144l0 -4.3302975l3.2816124 0.16540265l0.58309555 1.6811426l1.3153572 0l-0.21425629 -2.9474225z" fill-rule="evenodd"/><path fill="#434343" d="m29.201302 14.69497l0 1.1596527l1.2920647 0.2157507l0 9.660179l-1.2920647 0.18068886l0 1.0949287l4.607197 0l0 -1.0949287l-1.7560196 -0.18068886l0 -8.484346l1.0924568 2.1871605l4.858055 7.5728035l2.4357758 0l0 -10.935797l1.259697 -0.2157507l0 -1.1596527l-4.2430496 0l0 1.1596527l1.4080582 0.2157507l0 7.6725864l-0.92791367 -1.9902878l-4.574829 -7.057702z" fill-rule="evenodd"/><path fill="#434343" d="m42.475098 14.69497l0 1.1596527l1.3271332 0.23193073l0 9.643999l-1.2435112 0.18068886l0 1.0949287l6.6140785 0l0 -1.0949287l-2.5355759 -0.18068886l0 -4.0776634l2.1687279 0.06742096l0.34796906 1.5399113l1.1437073 0l0 -4.422863l-1.159893 0l-0.3317833 1.4913673l-2.1687279 0.04854393l0 -4.587371l3.1802597 0.1968708l0.6635666 1.806901l1.4916763 0l-0.1834259 -3.0987005z" fill-rule="evenodd"/><path fill="#434343" d="m52.835506 14.69497l-0.26704407 5.0026903l1.5591087 0l0.6959381 -3.6947098l2.071621 -0.080905914l0 9.808508l-2.1039925 0.18068886l0 1.0949287l7.274952 0l0 -1.0949287l-2.3036003 -0.18068886l0 -9.808508l2.0041847 0.080905914l0.7310028 3.6947098l1.4727936 0l-0.21309662 -5.0026903z" fill-rule="evenodd"/><path fill="#434343" d="m64.86709 14.69497l0 1.1596527l1.2920685 0.23193073l0 9.660179l-1.2758865 0.16450882l0 1.0949287l9.761978 0l0.39652252 -3.1148815l-1.4080582 -0.3991375l-1.0115356 2.1386166l-3.6280289 0.23193169l0 -4.506466l2.0365524 0.04854393l0.283226 1.4428234l1.1437073 0l0 -4.1585693l-1.1437073 0l-0.29940796 1.3592205l-2.0203705 0.04854393l0 -4.306897l3.2638779 0.16450882l0.5799484 1.6720572l1.3082504 0l-0.21309662 -2.9314947z" fill-rule="evenodd"/><path fill="#434343" d="m80.92648 15.690114c0.73908997 0 1.2659912 0.18518543 1.5806885 0.5555544c0.3164978 0.36857224 0.4747467 0.9510956 0.4747467 1.74757c0 0.9043503 -0.1609497 1.5803661 -0.4828415 2.0280457c-0.32009125 0.44767952 -0.7669678 0.67152023 -1.3406143 0.67152023l-0.56645966 0c-0.33088684 0 -0.5673599 -0.016181946 -0.70941925 -0.04854393l0 -4.8732405c0.29671478 -0.05393696 0.64468384 -0.080905914 1.0438995 -0.080905914zm0.24816132 -1.1111088c-0.42079926 0 -0.9288101 0.022473335 -1.5240402 0.06742096c-0.13307953 0.010787964 -0.3245926 0.021574974 -0.57455444 0.032362938c-0.24816132 0.01078701 -0.47654724 0.016180992 -0.6851425 0.016180992l-2.5544586 0l0 1.1434717l1.2111435 0.23193169l0 9.676359l-1.2758865 0.16450882l0 1.0949287l5.583664 0l0 -1.0949287l-1.472786 -0.16450882l0 -3.9778786l1.4916687 0c0.2967224 0.11146927 0.56916046 0.4189129 0.8173218 0.92232895c0.24996185 0.50161743 0.545784 1.2108936 0.8874512 2.1278286c0.2769394 0.7515259 0.50351715 1.3043842 0.67974854 1.6585732c0.17803192 0.3523903 0.3497696 0.52858543 0.515213 0.52858543l3.1478882 0l0 -1.0949287l-0.4801407 -0.14832687c-0.14385986 -0.032361984 -0.28232574 -0.16181183 -0.41540527 -0.38834953c-0.13127136 -0.2265358 -0.30750275 -0.5717354 -0.52869415 -1.0355968c-0.37583923 -0.79647446 -0.7381897 -1.4509144 -1.087059 -1.9633198c-0.3470688 -0.5142021 -0.77506256 -0.8647957 -1.2839737 -1.0517769c0.773262 -0.24451637 1.3586044 -0.6921978 1.7560196 -1.3430405c0.39922333 -0.6526432 0.5988312 -1.3538284 0.5988312 -2.1035576c0 -0.7856865 -0.1582489 -1.4185524 -0.4747467 -1.8985949c-0.31469727 -0.4800415 -0.82001495 -0.83333206 -1.5159531 -1.0598688c-0.6959305 -0.22653675 -1.6346359 -0.33980465 -2.8161087 -0.33980465z" fill-rule="evenodd"/><path fill="#ff9900" d="m0.0016867187 13.999823l0 0c0 -7.7318892 6.267292 -13.999824 13.998387 -13.999824l0 0c3.7126026 0 7.2731476 1.4749771 9.8983555 4.1004534c2.625206 2.6254764 4.100033 6.186386 4.100033 9.89937l0 0c0 7.731888 -6.267292 13.999823 -13.998388 13.999823l0 0c-7.731096 0 -13.998387 -6.267935 -13.998387 -13.999823z" fill-rule="evenodd"/><path fill="#434343" d="m1.2682076 13.999823l0 0c0 -7.032337 5.700251 -12.733172 12.731867 -12.733172l0 0c3.3767014 0 6.615101 1.3415269 9.00279 3.7294602c2.3876877 2.3879328 3.7290764 5.626665 3.7290764 9.003713l0 0c0 7.032337 -5.7002506 12.733171 -12.731867 12.733171l0 0c-7.0316157 0 -12.731867 -5.7008343 -12.731867 -12.733171z" fill-rule="evenodd"/><defs><radialGradient id="p.1" gradientUnits="userSpaceOnUse" gradientTransform="matrix(1.403219419157872 0.0 0.0 1.403219419157872 0.0 0.0)" spreadMethod="pad" cx="6.062771686456981" cy="9.159555548723565" fx="6.062771686456981" fy="9.159555548723565" r="1.40321946144104"><stop offset="0.0" stop-color="#fdecdb"/><stop offset="1.0" stop-color="#f0a963"/></radialGradient></defs><path fill="url(#p.1)" d="m10.440827 12.480156l-2.073184 0.39603138l-1.793673 0.1164341l0.20963383 0.23295498l1.8402295 -0.13975525l1.0482521 -0.20963383z" fill-rule="evenodd"/><defs><radialGradient id="p.2" gradientUnits="userSpaceOnUse" gradientTransform="matrix(2.333744500588886 0.0 0.0 2.333744500588886 0.0 0.0)" spreadMethod="pad" cx="4.014687028942706" cy="5.998393179392401" fx="4.014687028942706" fy="5.998393179392401" r="2.333744525909424"><stop offset="0.0" stop-color="#fdecdb"/><stop offset="1.0" stop-color="#f0a963"/></radialGradient></defs><path fill="url(#p.2)" d="m7.0165586 16.090738l1.1646872 0.1630764l0.7060394 -0.061079025l0.48196888 -0.24175358l0.48914433 -0.3959465l0.18639755 -0.465909l0.4192667 -2.865161l-1.1575108 0.020417213l-1.1181307 0.15137291l-0.5196414 0.10772133l0.046642303 0.74542046l-0.2329545 -0.023321152l-0.16307688 -0.5590229l-2.8186045 -0.23295403l3.0324235 -0.5036669l2.7677765 -0.28831005l1.6610928 -0.061164856l1.7470312 -0.023235321l-0.36100674 0.31445026l-2.2945213 0.23295403l-0.0116176605 0.7220993l1.0992517 -0.16017246l0.83861923 -0.4192667l0.25627518 0l-1.029459 0.6958742l-1.160245 0.14266014l-0.0931139 1.5840387l0.6522217 -0.6522207l0.60113716 -0.3406763l1.145894 -1.1269293l0.8851757 -0.093112946l-1.7936735 1.7004738l-1.3509989 0.69877815l-0.6567488 0.5678215l-0.53125954 0.4571104l-0.7848015 0.43968296l-0.5662832 0.11942482l-0.6522217 0l-0.74542046 -0.13975525z" fill-rule="evenodd"/><defs><radialGradient id="p.3" gradientUnits="userSpaceOnUse" gradientTransform="matrix(1.2905438055955036 0.0 0.0 1.2905438055955036 0.0 0.0)" spreadMethod="pad" cx="6.4205974592967" cy="11.397641583809598" fx="6.4205974592967" fy="11.397641583809598" r="1.290543794631958"><stop offset="0.0" stop-color="#fdecdb"/><stop offset="1.0" stop-color="#f0a963"/></radialGradient></defs><path fill="url(#p.3)" d="m9.369254 13.45853l-0.11643505 0.48914528l-0.87800026 0.090293884l-0.7759166 1.9363337l-0.39603138 -0.023321152l0.4614668 -2.5069733z" fill-rule="evenodd"/><defs><radialGradient id="p.4" gradientUnits="userSpaceOnUse" gradientTransform="matrix(1.5351967251589924 0.0 0.0 1.5351967251589924 0.0 0.0)" spreadMethod="pad" cx="3.3551592005769924" cy="9.591717287742156" fx="3.3551592005769924" fy="9.591717287742156" r="1.5351967811584473"><stop offset="0.0" stop-color="#fdecdb"/><stop offset="1.0" stop-color="#f0a963"/></radialGradient></defs><path fill="url(#p.4)" d="m7.0398793 13.831241l-1.2740312 -0.14266014l-2.5040689 -0.37270927l3.4707403 1.4442835l-0.08149576 0.73371696l-3.1518478 -1.2200432l3.3731847 1.8606472z" fill-rule="evenodd"/><defs><radialGradient id="p.5" gradientUnits="userSpaceOnUse" gradientTransform="matrix(1.3323221853105953 0.0 0.0 1.3323221853105953 0.0 0.0)" spreadMethod="pad" cx="9.036875595900176" cy="11.429272359315316" fx="9.036875595900176" fy="11.429272359315316" r="1.3323222398757935"><stop offset="0.0" stop-color="#fdecdb"/><stop offset="1.0" stop-color="#f0a963"/></radialGradient></defs><path fill="url(#p.5)" d="m10.354804 15.785086l0.3887701 -0.02041626l1.0554285 -0.63180447l1.9262524 -0.46300507l-1.7747936 0.11353016z" fill-rule="evenodd"/><defs><radialGradient id="p.6" gradientUnits="userSpaceOnUse" gradientTransform="matrix(1.4118544225282457 0.0 0.0 1.4118544225282457 0.0 0.0)" spreadMethod="pad" cx="10.307133006410606" cy="9.705778226862758" fx="10.307133006410606" fy="9.705778226862758" r="1.4118543863296509"><stop offset="0.0" stop-color="#fdecdb"/><stop offset="1.0" stop-color="#f0a963"/></radialGradient></defs><path fill="url(#p.6)" d="m12.583804 14.017639l1.7659092 -0.31735516l2.170825 -0.3116312l-1.607275 0.046557426l-1.9799852 0.27959633z" fill-rule="evenodd"/><defs><radialGradient id="p.7" gradientUnits="userSpaceOnUse" gradientTransform="matrix(2.232121512540898 0.0 0.0 2.232121512540898 0.0 0.0)" spreadMethod="pad" cx="9.105874399954255" cy="6.285157965998994" fx="9.105874399954255" fy="6.285157965998994" r="2.232121467590332"><stop offset="0.0" stop-color="#fdecdb"/><stop offset="1.0" stop-color="#f0a963"/></radialGradient></defs><path fill="url(#p.7)" d="m23.83571 15.323642l0.9001255 0.52715874l-5.024027 0.49623585l0.37296677 -2.1897907l-1.3978138 -0.2097187l0.023237228 -1.0479965l3.4010334 0.6523075l0.2097187 -0.51263714l-1.7790661 -0.3063345l-1.6452045 -0.41550827l-1.9568348 -0.023662567l0.4396839 0.46095467l0.5155411 2.9400787l-0.23295403 0.1164341l-1.3586025 -3.6933584l-0.38851357 -0.4063673l3.0280666 0l2.0597725 0.48606968l2.8550816 1.0281773l-0.04638672 1.1412811l-2.3989964 0.02314949l-0.25610352 1.2630968l0.43925667 0.06569195l1.0542316 -0.1096859z" fill-rule="evenodd"/></g></svg>