<svg version="1.1" viewBox="0.0 0.0 600.0 100.0" fill="none" stroke="none" stroke-linecap="square" stroke-miterlimit="10" xmlns:xlink="http://www.w3.org/1999/xlink" xmlns="http://www.w3.org/2000/svg"><clipPath id="p.0"><path d="m0 0l600.0 0l0 100.0l-600.0 0l0 -100.0z" clip-rule="nonzero"/></clipPath><g clip-path="url(#p.0)"><path fill="#000000" fill-opacity="0.0" d="m0 0l600.0 0l0 100.0l-600.0 0z" fill-rule="evenodd"/><defs><linearGradient id="p.1" gradientUnits="userSpaceOnUse" gradientTransform="matrix(8.898640812895481 0.0 0.0 8.898640812895481 0.0 0.0)" spreadMethod="pad" x1="16.626539938431087" y1="3.8396384897131117" x2="25.52518075132657" y2="3.8396384897131117"><stop offset="0.0" stop-color="#97a8a6"/><stop offset="1.0" stop-color="#495c5a"/></linearGradient></defs><path fill="url(#p.1)" d="m227.1394 18.90279l-42.45482 8.109957l-36.730972 2.3843555l4.2928925 4.770462l37.684357 -2.861927l21.466202 -4.2928905z" fill-rule="evenodd"/><defs><linearGradient id="p.2" gradientUnits="userSpaceOnUse" gradientTransform="matrix(14.120683802140256 0.0 0.0 14.120683802140256 0.0 0.0)" spreadMethod="pad" x1="7.471223165670893" y1="7.081605991156797" x2="21.591906967811152" y2="7.081605991156797"><stop offset="0.0" stop-color="#97a8a6"/><stop offset="1.0" stop-color="#495c5a"/></linearGradient></defs><path fill="url(#p.2)" d="m157.01697 92.84055l23.85054 3.3395004l14.458328 -1.2507782l9.869797 -4.9506454l10.016754 -8.108208l3.8170624 -9.540924l8.585785 -58.67299l-23.703613 0.41809273l-22.897156 3.0998383l-10.641266 2.2059212l0.95513916 15.264774l-4.770462 -0.47756958l-3.3394928 -11.447706l-57.719597 -4.77046l62.098198 -10.314133l56.67874 -5.9040356l34.01599 -1.2525302l35.77585 -0.47582152l-7.3927307 6.439335l-46.98738 4.7704606l-0.23791504 14.787204l22.510544 -3.2800198l17.17331 -8.58578l5.248047 0l-21.08136 14.250155l-23.759567 2.921404l-1.906784 32.438084l13.356232 -13.356239l12.31012 -6.976383l23.465698 -23.077345l18.126709 -1.906786l-36.730957 34.822437l-27.665878 14.309631l-13.448959 11.627892l-10.879166 9.360741l-16.071228 9.003868l-11.59639 2.4455872l-13.356247 0l-15.2647705 -2.8619308z" fill-rule="evenodd"/><defs><linearGradient id="p.3" gradientUnits="userSpaceOnUse" gradientTransform="matrix(6.660582802653035 0.0 0.0 6.660582802653035 0.0 0.0)" spreadMethod="pad" x1="24.146877544849318" y1="13.580823700798549" x2="30.807460347502353" y2="13.580823700798549"><stop offset="0.0" stop-color="#97a8a6"/><stop offset="1.0" stop-color="#495c5a"/></linearGradient></defs><path fill="url(#p.3)" d="m205.19563 38.938023l-2.3843536 10.016743l-17.979752 1.84906l-15.8892975 39.652374l-8.109955 -0.47756958l9.449966 -51.337994z" fill-rule="evenodd"/><defs><linearGradient id="p.4" gradientUnits="userSpaceOnUse" gradientTransform="matrix(8.795921399587229 0.0 0.0 8.795921399587229 0.0 0.0)" spreadMethod="pad" x1="9.109483639439237" y1="10.65678241245309" x2="17.905405039026466" y2="10.65678241245309"><stop offset="0.0" stop-color="#97a8a6"/><stop offset="1.0" stop-color="#495c5a"/></linearGradient></defs><path fill="url(#p.4)" d="m157.49454 46.57041l-26.089722 -2.9214058l-51.27851 -7.6323853l71.07409 29.576153l-1.668869 15.025116l-64.5438 -24.984127l69.07635 38.10246z" fill-rule="evenodd"/><defs><linearGradient id="p.5" gradientUnits="userSpaceOnUse" gradientTransform="matrix(8.307849403582038 0.0 0.0 8.307849403582038 0.0 0.0)" spreadMethod="pad" x1="27.12829738126759" y1="10.42163881817168" x2="35.436146784849626" y2="10.42163881817168"><stop offset="0.0" stop-color="#97a8a6"/><stop offset="1.0" stop-color="#495c5a"/></linearGradient></defs><path fill="url(#p.5)" d="m225.37782 86.581406l7.961258 -0.41809845l21.613144 -12.938141l39.44597 -9.481445l-36.34439 2.3248749z" fill-rule="evenodd"/><defs><linearGradient id="p.6" gradientUnits="userSpaceOnUse" gradientTransform="matrix(8.97868461385147 0.0 0.0 8.97868461385147 0.0 0.0)" spreadMethod="pad" x1="30.18520520053578" y1="5.611899694805257" x2="39.163889814387254" y2="5.611899694805257"><stop offset="0.0" stop-color="#97a8a6"/><stop offset="1.0" stop-color="#495c5a"/></linearGradient></defs><path fill="url(#p.6)" d="m271.02344 50.38748l36.162445 -6.4988136l44.454315 -6.381607l-32.91388 0.953392l-40.546295 5.725601z" fill-rule="evenodd"/><defs><linearGradient id="p.7" gradientUnits="userSpaceOnUse" gradientTransform="matrix(13.44000503110845 0.0 0.0 13.44000503110845 0.0 0.0)" spreadMethod="pad" x1="25.241058440276717" y1="7.298289235624326" x2="38.681063471385166" y2="7.298289235624326"><stop offset="0.0" stop-color="#97a8a6"/><stop offset="1.0" stop-color="#495c5a"/></linearGradient></defs><path fill="url(#p.7)" d="m501.44086 77.131905l18.432861 10.795204l-102.882416 10.161934l7.6376343 -44.842674l-28.624512 -4.2946396l0.47579956 -21.46095l69.64664 13.357988l4.294647 -10.497812l-36.431854 -6.2731457l-33.690613 -8.508809l-40.072205 -0.4845686l9.003876 9.439459l10.5572815 60.20717l-4.770447 2.3843536l-27.821564 -75.63288l-7.956024 -8.321629l62.008972 0l42.180176 9.953766l58.466583 21.055103l-0.94989014 23.371231l-49.12683 0.47407532l-5.2445374 25.865795l8.995148 1.3452454l21.588654 -2.2461548z" fill-rule="evenodd"/></g></svg>