<svg version="1.1" viewBox="0.0 0.0 250.0 100.0" fill="none" stroke="none" stroke-linecap="square" stroke-miterlimit="10" xmlns:xlink="http://www.w3.org/1999/xlink" xmlns="http://www.w3.org/2000/svg"><clipPath id="p.0"><path d="m0 0l250.0 0l0 100.0l-250.0 0l0 -100.0z" clip-rule="nonzero"/></clipPath><g clip-path="url(#p.0)"><path fill="#000000" fill-opacity="0.0" d="m0 0l250.0 0l0 100.0l-250.0 0z" fill-rule="evenodd"/><defs><radialGradient id="p.1" gradientUnits="userSpaceOnUse" gradientTransform="matrix(4.787760339988075 0.0 0.0 4.787760339988075 0.0 0.0)" spreadMethod="pad" cx="12.755666904504597" cy="7.657115269994963" fx="12.755666904504597" fy="7.657115269994963" r="4.787760257720947"><stop offset="0.0" stop-color="#fdecdb"/><stop offset="1.0" stop-color="#f0a963"/></radialGradient></defs><path fill="url(#p.1)" d="m83.57933 32.32148l-24.135239 4.610447l-20.881268 1.3554878l2.4404755 2.7119713l21.423264 -1.6269836l12.203365 -2.4404755z" fill-rule="evenodd"/><defs><radialGradient id="p.2" gradientUnits="userSpaceOnUse" gradientTransform="matrix(7.962695676260821 0.0 0.0 7.962695676260821 0.0 0.0)" spreadMethod="pad" cx="8.929697974776548" cy="6.279280555741766" fx="8.929697974776548" fy="6.279280555741766" r="7.962695598602295"><stop offset="0.0" stop-color="#fdecdb"/><stop offset="1.0" stop-color="#f0a963"/></radialGradient></defs><path fill="url(#p.2)" d="m43.715267 74.354515l13.558853 1.8984833l8.219448 -0.7110596l5.610901 -2.8143997l5.694435 -4.609459l2.1699753 -5.423935l4.880951 -33.355133l-13.475319 0.23768234l-13.016853 1.7622337l-6.049473 1.2540493l0.54299164 8.677906l-2.7119713 -0.27149582l-1.8984756 -6.5079308l-32.81314 -2.7119694l35.302345 -5.8635025l32.221413 -3.3563976l19.337822 -0.7120552l20.33828 -0.27050018l-4.2027054 3.6607113l-26.711952 2.7119694l-0.1352539 8.40641l12.797073 -1.864666l9.762894 -4.880949l2.983467 0l-11.984581 8.101099l-13.5071335 1.6607971l-1.083992 18.440796l7.592911 -7.5929184l6.9982147 -3.9660187l13.340065 -13.119289l10.304886 -1.083992l-20.881264 19.796284l-15.727837 8.134911l-7.6456223 6.610363l-6.184723 5.3215103l-9.13636 5.1186295l-6.5924644 1.3902893l-7.5929184 0l-8.677902 -1.626976z" fill-rule="evenodd"/><defs><radialGradient id="p.3" gradientUnits="userSpaceOnUse" gradientTransform="matrix(4.40331313491789 0.0 0.0 4.40331313491789 0.0 0.0)" spreadMethod="pad" cx="13.284169311964803" cy="13.23336755062327" fx="13.284169311964803" fy="13.23336755062327" r="4.403313159942627"><stop offset="0.0" stop-color="#fdecdb"/><stop offset="1.0" stop-color="#f0a963"/></radialGradient></defs><path fill="url(#p.3)" d="m71.10447 43.711353l-1.3554916 5.694439l-10.221348 1.0511742l-9.032936 22.542065l-4.610447 -0.271492l5.3722267 -29.18525z" fill-rule="evenodd"/><defs><radialGradient id="p.4" gradientUnits="userSpaceOnUse" gradientTransform="matrix(5.238064583323524 0.0 0.0 5.238064583323524 0.0 0.0)" spreadMethod="pad" cx="4.199098464756887" cy="11.160062416259477" fx="4.199098464756887" fy="11.160062416259477" r="5.238064765930176"><stop offset="0.0" stop-color="#fdecdb"/><stop offset="1.0" stop-color="#f0a963"/></radialGradient></defs><path fill="url(#p.4)" d="m43.986763 48.050304l-14.831797 -1.6607933l-29.151432 -4.338951l40.40506 16.813812l-0.9487419 8.5416565l-36.69264 -14.203278l39.269356 21.660942z" fill-rule="evenodd"/><defs><radialGradient id="p.5" gradientUnits="userSpaceOnUse" gradientTransform="matrix(4.545860264483426 0.0 0.0 4.545860264483426 0.0 0.0)" spreadMethod="pad" cx="22.481254920389294" cy="14.145775386867763" fx="22.481254920389294" fy="14.145775386867763" r="4.545860290527344"><stop offset="0.0" stop-color="#fdecdb"/><stop offset="1.0" stop-color="#f0a963"/></radialGradient></defs><path fill="url(#p.5)" d="m82.57788 70.79624l4.5259094 -0.23768616l12.286903 -7.3552322l22.424713 -5.3901253l-20.661484 1.3216743z" fill-rule="evenodd"/><defs><radialGradient id="p.6" gradientUnits="userSpaceOnUse" gradientTransform="matrix(4.817222944087664 0.0 0.0 4.817222944087664 0.0 0.0)" spreadMethod="pad" cx="27.28585668159" cy="9.665126886958557" fx="27.28585668159" fy="9.665126886958557" r="4.817223072052002"><stop offset="0.0" stop-color="#fdecdb"/><stop offset="1.0" stop-color="#f0a963"/></radialGradient></defs><path fill="url(#p.6)" d="m108.52706 50.22028l20.558052 -3.6945229l25.271942 -3.6278954l-18.711304 0.541996l-23.05024 3.254963z" fill-rule="evenodd"/><defs><radialGradient id="p.7" gradientUnits="userSpaceOnUse" gradientTransform="matrix(7.615959893759057 0.0 0.0 7.615959893759057 0.0 0.0)" spreadMethod="pad" cx="26.08365034192072" cy="6.6118117835235575" fx="26.08365034192072" fy="6.6118117835235575" r="7.615960121154785"><stop offset="0.0" stop-color="#fdecdb"/><stop offset="1.0" stop-color="#f0a963"/></radialGradient></defs><path fill="url(#p.7)" d="m239.51755 65.42428l10.478912 6.136986l-58.48784 5.7769775l4.341934 -25.492706l-16.272797 -2.441471l0.27049255 -12.200378l39.59355 7.59391l2.4414825 -5.967922l-20.711212 -3.5662346l-19.152847 -4.8371925l-22.780746 -0.27547264l5.118637 5.3662586l6.0017242 34.2273l-2.7119598 1.3554916l-15.816345 -42.9967l-4.522934 -4.7307796l35.251633 0l23.979095 5.658638l33.237778 11.96966l-0.54000854 13.286362l-27.928207 0.26950455l-2.9814758 14.704502l5.1136627 0.7647629l12.27298 -1.2769241z" fill-rule="evenodd"/></g></svg>