<svg version="1.1" viewBox="0.0 0.0 112.0 28.0" fill="none" stroke="none" stroke-linecap="square" stroke-miterlimit="10" xmlns:xlink="http://www.w3.org/1999/xlink" xmlns="http://www.w3.org/2000/svg"><clipPath id="p.0"><path d="m0 0l112.0 0l0 28.0l-112.0 0l0 -28.0z" clip-rule="nonzero"/></clipPath><g clip-path="url(#p.0)"><path fill="#000000" fill-opacity="0.0" d="m0 0l112.0 0l0 28.0l-112.0 0z" fill-rule="evenodd"/><path fill="#00f0ff" d="m67.43199 0.74943036l0 12.3893585l7.6407547 0l0 -2.4447231l-4.8580246 0l0 -9.944635z" fill-rule="evenodd"/><path fill="#00f0ff" d="m82.47154 3.0228846l1.5504913 4.7347517l-3.6837082 0l1.5130157 -4.7347517zm-2.5429459 -2.2734542l-4.0925674 12.3893585l2.78273 0l0.9815979 -3.0717869l5.177925 0l1.0059204 3.0717869l2.8877335 0l-4.2445526 -12.3893585z" fill-rule="evenodd"/><path fill="#00f0ff" d="m89.75686 0.74943036l0 2.2734542l5.9589844 0l0.16573334 0.21697259l-6.3457947 7.810559l0 2.0883732l9.746452 0l0 -2.2900286l-6.200592 0l-0.15647888 -0.20656967l0 0l6.357071 -7.804387l0 -2.0883737z" fill-rule="evenodd"/><path fill="#00f0ff" d="m99.99564 0.74943036l3.6172638 7.687756l0.61071014 0l0 4.701603l2.7329865 0l0 -4.701603l0.6107025 0l3.3271103 -7.687756l-2.6970596 0l-2.2803497 5.599383l-0.5418091 0l-2.527748 -5.599383z" fill-rule="evenodd"/><path fill="#efefef" d="m29.328129 0.77396816l0 2.4254236l3.481861 0l0 9.964127l2.7827263 0l0 -9.964127l3.4984398 0l0 -2.4254236z" fill-rule="evenodd"/><path fill="#efefef" d="m40.84035 0.77396816l0 12.389551l2.7827225 0l0 -5.0055447l5.231083 0l0 5.0055447l2.7827263 0l0 -12.389551l-2.7827263 0l0 4.9392457l-5.231083 0l0 -4.9392457z" fill-rule="evenodd"/><path fill="#efefef" d="m54.422916 0.77396816l0 12.389551l7.792736 0l0 -2.3094015l-5.076332 0l0 -2.8342648l4.686695 0l0 -2.3066387l-4.686695 0l0 -2.632607l4.957508 0l0 -2.3066387z" fill-rule="evenodd"/><path fill="#efefef" d="m29.328201 14.691598l0 12.322684l2.5670738 0l0 -10.07795l0.23637009 0l4.64217 10.07795l4.576206 0l0 -12.322684l-2.6000557 0l0 10.0779505l-0.23637009 0l-4.64217 -10.0779505z" fill-rule="evenodd"/><path fill="#efefef" d="m44.12087 14.691598l0 12.322684l2.7677116 0l0 -4.962044l4.425041 0l0 -2.296938l-4.425041 0l0 -2.7695122l4.6284294 0l0 -2.2941904z" fill-rule="evenodd"/><path fill="#efefef" d="m52.715164 14.691598l0 2.4123335l3.4630737 0l0 9.910351l2.7677116 0l0 -9.910351l3.4795685 0l0 -2.4123335z" fill-rule="evenodd"/><path fill="#efefef" d="m64.165276 14.691598l0 12.322684l7.7506866 0l0 -2.296938l-5.0489426 0l0 -2.8189678l4.6614075 0l0 -2.2941895l-4.6614075 0l0 -2.6183987l4.9307632 0l0 -2.2941904z" fill-rule="evenodd"/><path fill="#efefef" d="m79.26135 16.936333c0.40493774 0 0.7567444 0.081510544 1.0554123 0.24452972c0.2986679 0.16302109 0.529541 0.3938141 0.6926117 0.692379c0.16307831 0.2985649 0.24461365 0.6447544 0.24461365 1.0385666c0 0.3938141 -0.08153534 0.7400017 -0.24461365 1.0385685c-0.16307068 0.2985649 -0.3939438 0.5293579 -0.6926117 0.6923771c-0.2986679 0.16302109 -0.65047455 0.24453163 -1.0554123 0.24453163l-2.2977219 0l0 -3.9509525zm-5.0654373 -2.3463926l0 12.424342l2.7677155 0l0 -3.9509525l2.0193405 0l2.6942902 3.9509525l3.2074661 0l-3.1477432 -4.411276l0 0c0.73117065 -0.29857063 1.298523 -0.74409103 1.7020416 -1.3365631c0.41227722 -0.6026249 0.6184082 -1.3591118 0.6184082 -2.2694607l0 -0.272007c0 -0.9231701 -0.20246887 -1.6879005 -0.60741425 -2.2941895c-0.40493774 -0.60811996 -0.9848633 -1.0669584 -1.7397766 -1.3765135c-0.75492096 -0.30955505 -1.6445084 -0.46433258 -2.6687698 -0.46433258z" fill-rule="evenodd"/><defs><linearGradient id="p.1" gradientUnits="userSpaceOnUse" gradientTransform="matrix(6.292491271038188 0.0 0.0 6.292491271038188 0.0 0.0)" spreadMethod="pad" x1="-2.2245772203386935" y1="2.226617361057904" x2="2.2266572799538777" y2="6.6743086519971655"><stop offset="0.0" stop-color="#ff61d3"/><stop offset="0.22" stop-color="#b318ff"/><stop offset="0.47" stop-color="#b318ff"/><stop offset="0.78" stop-color="#00f0ff"/><stop offset="0.88" stop-color="#1e43ff"/><stop offset="1.0" stop-color="#30b6ff"/></linearGradient></defs><path fill="url(#p.1)" d="m0.0016867187 13.999823l0 0c0 -7.7318892 6.267292 -13.999824 13.998387 -13.999824l0 0c3.7126026 0 7.2731476 1.4749771 9.8983555 4.1004534c2.625206 2.6254764 4.100033 6.186386 4.100033 9.89937l0 0c0 7.731888 -6.267292 13.999823 -13.998388 13.999823l0 0c-7.731096 0 -13.998387 -6.267935 -13.998387 -13.999823z" fill-rule="evenodd"/><path fill="#1e2534" d="m1.2682076 13.999823l0 0c0 -7.032337 5.700251 -12.733172 12.731867 -12.733172l0 0c3.3767014 0 6.615101 1.3415269 9.00279 3.7294602c2.3876877 2.3879328 3.7290764 5.626665 3.7290764 9.003713l0 0c0 7.032337 -5.7002506 12.733171 -12.731867 12.733171l0 0c-7.0316157 0 -12.731867 -5.7008343 -12.731867 -12.733171z" fill-rule="evenodd"/><defs><radialGradient id="p.2" gradientUnits="userSpaceOnUse" gradientTransform="matrix(1.403219419157872 0.0 0.0 1.403219419157872 0.0 0.0)" spreadMethod="pad" cx="6.062771686456981" cy="9.159555548723565" fx="6.062771686456981" fy="9.159555548723565" r="1.40321946144104"><stop offset="0.0" stop-color="#ffffff"/><stop offset="1.0" stop-color="#b3b3b3"/></radialGradient></defs><path fill="url(#p.2)" d="m10.440827 12.480156l-2.073184 0.39603138l-1.793673 0.1164341l0.20963383 0.23295498l1.8402295 -0.13975525l1.0482521 -0.20963383z" fill-rule="evenodd"/><defs><radialGradient id="p.3" gradientUnits="userSpaceOnUse" gradientTransform="matrix(2.333744500588886 0.0 0.0 2.333744500588886 0.0 0.0)" spreadMethod="pad" cx="4.014687028942706" cy="5.998393179392401" fx="4.014687028942706" fy="5.998393179392401" r="2.333744525909424"><stop offset="0.0" stop-color="#ffffff"/><stop offset="1.0" stop-color="#b3b3b3"/></radialGradient></defs><path fill="url(#p.3)" d="m7.0165586 16.090738l1.1646872 0.1630764l0.7060394 -0.061079025l0.48196888 -0.24175358l0.48914433 -0.3959465l0.18639755 -0.465909l0.4192667 -2.865161l-1.1575108 0.020417213l-1.1181307 0.15137291l-0.5196414 0.10772133l0.046642303 0.74542046l-0.2329545 -0.023321152l-0.16307688 -0.5590229l-2.8186045 -0.23295403l3.0324235 -0.5036669l2.7677765 -0.28831005l1.6610928 -0.061164856l1.7470312 -0.023235321l-0.36100674 0.31445026l-2.2945213 0.23295403l-0.0116176605 0.7220993l1.0992517 -0.16017246l0.83861923 -0.4192667l0.25627518 0l-1.029459 0.6958742l-1.160245 0.14266014l-0.0931139 1.5840387l0.6522217 -0.6522207l0.60113716 -0.3406763l1.145894 -1.1269293l0.8851757 -0.093112946l-1.7936735 1.7004738l-1.3509989 0.69877815l-0.6567488 0.5678215l-0.53125954 0.4571104l-0.7848015 0.43968296l-0.5662832 0.11942482l-0.6522217 0l-0.74542046 -0.13975525z" fill-rule="evenodd"/><defs><radialGradient id="p.4" gradientUnits="userSpaceOnUse" gradientTransform="matrix(1.2905438055955036 0.0 0.0 1.2905438055955036 0.0 0.0)" spreadMethod="pad" cx="6.4205974592967" cy="11.397641583809598" fx="6.4205974592967" fy="11.397641583809598" r="1.290543794631958"><stop offset="0.0" stop-color="#ffffff"/><stop offset="1.0" stop-color="#b3b3b3"/></radialGradient></defs><path fill="url(#p.4)" d="m9.369254 13.45853l-0.11643505 0.48914528l-0.87800026 0.090293884l-0.7759166 1.9363337l-0.39603138 -0.023321152l0.4614668 -2.5069733z" fill-rule="evenodd"/><defs><radialGradient id="p.5" gradientUnits="userSpaceOnUse" gradientTransform="matrix(1.5351967251589924 0.0 0.0 1.5351967251589924 0.0 0.0)" spreadMethod="pad" cx="3.3551592005769924" cy="9.591717287742156" fx="3.3551592005769924" fy="9.591717287742156" r="1.5351967811584473"><stop offset="0.0" stop-color="#ffffff"/><stop offset="1.0" stop-color="#b3b3b3"/></radialGradient></defs><path fill="url(#p.5)" d="m7.0398793 13.831241l-1.2740312 -0.14266014l-2.5040689 -0.37270927l3.4707403 1.4442835l-0.08149576 0.73371696l-3.1518478 -1.2200432l3.3731847 1.8606472z" fill-rule="evenodd"/><defs><radialGradient id="p.6" gradientUnits="userSpaceOnUse" gradientTransform="matrix(1.3323221853105953 0.0 0.0 1.3323221853105953 0.0 0.0)" spreadMethod="pad" cx="9.036875595900176" cy="11.429272359315316" fx="9.036875595900176" fy="11.429272359315316" r="1.3323222398757935"><stop offset="0.0" stop-color="#ffffff"/><stop offset="1.0" stop-color="#b3b3b3"/></radialGradient></defs><path fill="url(#p.6)" d="m10.354804 15.785086l0.3887701 -0.02041626l1.0554285 -0.63180447l1.9262524 -0.46300507l-1.7747936 0.11353016z" fill-rule="evenodd"/><defs><radialGradient id="p.7" gradientUnits="userSpaceOnUse" gradientTransform="matrix(1.4118544225282457 0.0 0.0 1.4118544225282457 0.0 0.0)" spreadMethod="pad" cx="10.307133006410606" cy="9.705778226862758" fx="10.307133006410606" fy="9.705778226862758" r="1.4118543863296509"><stop offset="0.0" stop-color="#ffffff"/><stop offset="1.0" stop-color="#b3b3b3"/></radialGradient></defs><path fill="url(#p.7)" d="m12.583804 14.017639l1.7659092 -0.31735516l2.170825 -0.3116312l-1.607275 0.046557426l-1.9799852 0.27959633z" fill-rule="evenodd"/><defs><radialGradient id="p.8" gradientUnits="userSpaceOnUse" gradientTransform="matrix(2.232121512540898 0.0 0.0 2.232121512540898 0.0 0.0)" spreadMethod="pad" cx="9.105874399954255" cy="6.285157965998994" fx="9.105874399954255" fy="6.285157965998994" r="2.232121467590332"><stop offset="0.0" stop-color="#ffffff"/><stop offset="1.0" stop-color="#b3b3b3"/></radialGradient></defs><path fill="url(#p.8)" d="m23.83571 15.323642l0.9001255 0.52715874l-5.024027 0.49623585l0.37296677 -2.1897907l-1.3978138 -0.2097187l0.023237228 -1.0479965l3.4010334 0.6523075l0.2097187 -0.51263714l-1.7790661 -0.3063345l-1.6452045 -0.41550827l-1.9568348 -0.023662567l0.4396839 0.46095467l0.5155411 2.9400787l-0.23295403 0.1164341l-1.3586025 -3.6933584l-0.38851357 -0.4063673l3.0280666 0l2.0597725 0.48606968l2.8550816 1.0281773l-0.04638672 1.1412811l-2.3989964 0.02314949l-0.25610352 1.2630968l0.43925667 0.06569195l1.0542316 -0.1096859z" fill-rule="evenodd"/></g></svg>