<svg version="1.1" viewBox="0.0 0.0 112.0 28.0" fill="none" stroke="none" stroke-linecap="square" stroke-miterlimit="10" xmlns:xlink="http://www.w3.org/1999/xlink" xmlns="http://www.w3.org/2000/svg"><clipPath id="p.0"><path d="m0 0l112.0 0l0 28.0l-112.0 0l0 -28.0z" clip-rule="nonzero"/></clipPath><g clip-path="url(#p.0)"><path fill="#000000" fill-opacity="0.0" d="m0 0l112.0 0l0 28.0l-112.0 0z" fill-rule="evenodd"/><path fill="#9900ff" d="m69.48717 0.74939704l0 12.066158l7.7678604 0l0 -1.9972143l-5.2808228 0l0 -10.068944z" fill-rule="evenodd"/><path fill="#9900ff" d="m83.46435 3.7990854l1.5170975 4.5165224l-3.0176163 0l1.5005188 -4.5165224zm-1.1523285 -3.0496883l-4.4932632 12.066158l2.6445618 0l0.82901 -2.4861593l4.3606186 0l0.83730316 2.4861593l2.6445541 0l-4.5181274 -12.066158z" fill-rule="evenodd"/><path fill="#9900ff" d="m89.79802 0.74939704l0 2.013789l5.9606094 0l-5.9689026 8.5938225l0 1.4585466l9.193771 0l0 -1.9972143l-6.0849686 0l5.952324 -8.643546l0 -1.4253979z" fill-rule="evenodd"/><path fill="#9900ff" d="m99.4892 0.74939704l3.9626923 7.6905184l0 4.37564l2.5284882 0l0 -4.37564l3.9626923 -7.6905184l-2.7191696 0l-2.5119095 5.4364014l-2.4953384 -5.4364014z" fill-rule="evenodd"/><path fill="#1e2534" d="m31.3833 0.77393484l0 2.01382l3.647663 0l0 10.052525l2.4870415 0l0 -10.052525l3.6974068 0l0 -2.01382z" fill-rule="evenodd"/><path fill="#1e2534" d="m42.633026 0.77393484l0 12.066345l2.4870415 0l0 -5.1712904l4.8497353 0l0 5.1712904l2.4870453 0l0 -12.066345l-2.4870453 0l0 4.8895216l-4.8497353 0l0 -4.8895216z" fill-rule="evenodd"/><path fill="#1e2534" d="m54.628864 0.77393484l0 12.066345l8.091183 0l0 -1.9972448l-5.6041374 0l0 -3.2320566l4.7751236 0l0 -1.9475217l-4.7751236 0l0 -2.8757017l5.587555 0l0 -2.01382z" fill-rule="evenodd"/><path fill="#1e2534" d="m31.383373 14.589907l0 12.001223l2.4736252 0l0 -7.89641l4.815323 7.89641l2.4736252 0l0 -12.001223l-2.4653778 0l0 7.9128933l-4.8235703 -7.9128933z" fill-rule="evenodd"/><path fill="#1e2534" d="m43.306248 14.589907l0 12.001223l2.4736252 0l0 -4.9043465l4.749359 0l0 -1.994709l-4.749359 0l0 -3.0992165l5.343029 0l0 -2.0029507z" fill-rule="evenodd"/><path fill="#1e2534" d="m51.980427 14.589907l0 2.0029507l3.627983 0l0 9.998272l2.4736252 0l0 -9.998272l3.677456 0l0 -2.0029507z" fill-rule="evenodd"/><path fill="#1e2534" d="m63.169456 14.589907l0 12.001223l8.0475235 0l0 -1.9864674l-5.5738983 0l0 -3.214613l4.749359 0l0 -1.9370098l-4.749359 0l0 -2.8601818l5.557411 0l0 -2.0029507z" fill-rule="evenodd"/><path fill="#1e2534" d="m77.128944 16.592857c0.6651306 0 1.1580276 0.16210365 1.4786835 0.48631287c0.32248688 0.3242092 0.4837265 0.76931 0.4837265 1.3353024c0 0.5550003 -0.17040253 0.990942 -0.5112152 1.3078251c-0.34080505 0.31505013 -0.8217926 0.47257423 -1.4429474 0.47257423l-1.9953918 0l0 -3.6020145zm-4.4607697 -2.0029507l0 12.001223l2.4736252 0l0 -4.393305l1.9706573 0l2.2509995 4.393305l2.6550217 0l0 -0.1153965l-2.5973053 -4.9043465c0.7201004 -0.3242092 1.2569656 -0.7592335 1.6106033 -1.3050785c0.35546875 -0.5476742 0.5332031 -1.2308941 0.5332031 -2.0496578c0 -1.153965 -0.38478088 -2.0469131 -1.1543579 -2.6788454c-0.7695694 -0.63193226 -1.8634644 -0.9478979 -3.2816772 -0.9478979z" fill-rule="evenodd"/><defs><linearGradient id="p.1" gradientUnits="userSpaceOnUse" gradientTransform="matrix(6.2924911269659525 0.0 0.0 6.2924911269659525 0.0 0.0)" spreadMethod="pad" x1="-1.897970225660757" y1="2.226612116674436" x2="2.553263969211144" y2="6.674303509447585"><stop offset="0.0" stop-color="#ff61d3"/><stop offset="0.22" stop-color="#b318ff"/><stop offset="0.47" stop-color="#b318ff"/><stop offset="0.78" stop-color="#00f0ff"/><stop offset="0.88" stop-color="#1e43ff"/><stop offset="1.0" stop-color="#30b6ff"/></linearGradient></defs><path fill="url(#p.1)" d="m2.0568576 13.999789l0 0c0 -7.7318892 6.2672915 -13.999824 13.998388 -13.999824l0 0c3.7126026 0 7.2731476 1.4749771 9.898354 4.100453c2.625208 2.6254764 4.100033 6.186386 4.100033 9.89937l0 0c0 7.731889 -6.267292 13.999822 -13.998386 13.999822l0 0c-7.731097 0 -13.998388 -6.267933 -13.998388 -13.999822z" fill-rule="evenodd"/><path fill="#1e2534" d="m3.3233783 13.999789l0 0c0 -7.032337 5.7002506 -12.733172 12.731868 -12.733172l0 0c3.3766994 0 6.615101 1.3415267 9.002789 3.72946c2.3876877 2.3879328 3.7290783 5.626665 3.7290783 9.003713l0 0c0 7.032336 -5.7002525 12.733172 -12.731867 12.733172l0 0c-7.031617 0 -12.731868 -5.700836 -12.731868 -12.733172z" fill-rule="evenodd"/><defs><radialGradient id="p.2" gradientUnits="userSpaceOnUse" gradientTransform="matrix(1.403219419157872 0.0 0.0 1.403219419157872 0.0 0.0)" spreadMethod="pad" cx="7.527382878465086" cy="9.159531793826167" fx="7.527382878465086" fy="9.159531793826167" r="1.40321946144104"><stop offset="0.0" stop-color="#ffffff"/><stop offset="1.0" stop-color="#b3b3b3"/></radialGradient></defs><path fill="url(#p.2)" d="m12.495998 12.480123l-2.073184 0.39603138l-1.7936726 0.1164341l0.20963287 0.23295498l1.84023 -0.13975525l1.0482521 -0.20963383z" fill-rule="evenodd"/><defs><radialGradient id="p.3" gradientUnits="userSpaceOnUse" gradientTransform="matrix(2.333744500588886 0.0 0.0 2.333744500588886 0.0 0.0)" spreadMethod="pad" cx="4.8953193627835105" cy="5.998378896195023" fx="4.8953193627835105" fy="5.998378896195023" r="2.333744525909424"><stop offset="0.0" stop-color="#ffffff"/><stop offset="1.0" stop-color="#b3b3b3"/></radialGradient></defs><path fill="url(#p.3)" d="m9.07173 16.090704l1.1646872 0.1630764l0.7060385 -0.061079025l0.48196888 -0.24175262l0.48914528 -0.39594555l0.18639755 -0.465909l0.4192667 -2.865162l-1.1575108 0.020417213l-1.1181307 0.15137291l-0.5196419 0.10772133l0.046642303 0.74542046l-0.23295403 -0.023321152l-0.16307735 -0.5590229l-2.818604 -0.23295403l3.0324235 -0.5036669l2.7677765 -0.28831005l1.6610928 -0.061164856l1.7470312 -0.023235321l-0.3610077 0.31445026l-2.2945204 0.23295403l-0.0116176605 0.7220993l1.0992517 -0.16017246l0.8386183 -0.4192667l0.25627613 0l-1.029459 0.6958742l-1.160245 0.14266014l-0.0931139 1.5840387l0.6522217 -0.6522207l0.60113716 -0.3406763l1.1458931 -1.1269293l0.88517666 -0.093112946l-1.7936735 1.7004738l-1.3509989 0.69877815l-0.6567497 0.5678215l-0.5312586 0.4571104l-0.7848015 0.4396839l-0.5662842 0.11942291l-0.6522207 0l-0.74542046 -0.13975525z" fill-rule="evenodd"/><defs><radialGradient id="p.4" gradientUnits="userSpaceOnUse" gradientTransform="matrix(1.2905438055955036 0.0 0.0 1.2905438055955036 0.0 0.0)" spreadMethod="pad" cx="8.013081850164317" cy="11.397615754904612" fx="8.013081850164317" fy="11.397615754904612" r="1.290543794631958"><stop offset="0.0" stop-color="#ffffff"/><stop offset="1.0" stop-color="#b3b3b3"/></radialGradient></defs><path fill="url(#p.4)" d="m11.424424 13.458498l-0.1164341 0.48914433l-0.87800026 0.090293884l-0.77591705 1.9363337l-0.39603138 -0.023321152l0.4614668 -2.5069733z" fill-rule="evenodd"/><defs><radialGradient id="p.5" gradientUnits="userSpaceOnUse" gradientTransform="matrix(1.5351967251589924 0.0 0.0 1.5351967251589924 0.0 0.0)" spreadMethod="pad" cx="4.693861161349407" cy="9.591695574998253" fx="4.693861161349407" fy="9.591695574998253" r="1.5351967811584473"><stop offset="0.0" stop-color="#ffffff"/><stop offset="1.0" stop-color="#b3b3b3"/></radialGradient></defs><path fill="url(#p.5)" d="m9.095051 13.831207l-1.2740316 -0.14266014l-2.5040689 -0.37270927l3.4707398 1.4442835l-0.081495285 0.73371696l-3.1518478 -1.2200422l3.3731842 1.8606453z" fill-rule="evenodd"/><defs><radialGradient id="p.6" gradientUnits="userSpaceOnUse" gradientTransform="matrix(1.3323221853105953 0.0 0.0 1.3323221853105953 0.0 0.0)" spreadMethod="pad" cx="10.579423553744641" cy="11.429247340341902" fx="10.579423553744641" fy="11.429247340341902" r="1.3323222398757935"><stop offset="0.0" stop-color="#ffffff"/><stop offset="1.0" stop-color="#b3b3b3"/></radialGradient></defs><path fill="url(#p.6)" d="m12.409975 15.785052l0.3887701 -0.02041626l1.0554285 -0.63180447l1.9262524 -0.46300507l-1.7747936 0.11353016z" fill-rule="evenodd"/><defs><radialGradient id="p.7" gradientUnits="userSpaceOnUse" gradientTransform="matrix(1.4118544225282457 0.0 0.0 1.4118544225282457 0.0 0.0)" spreadMethod="pad" cx="11.762786530845146" cy="9.705754617252023" fx="11.762786530845146" fy="9.705754617252023" r="1.4118543863296509"><stop offset="0.0" stop-color="#ffffff"/><stop offset="1.0" stop-color="#b3b3b3"/></radialGradient></defs><path fill="url(#p.7)" d="m14.638975 14.017606l1.7659092 -0.31735516l2.170826 -0.3116312l-1.607275 0.046557426l-1.9799862 0.27959633z" fill-rule="evenodd"/><defs><radialGradient id="p.8" gradientUnits="userSpaceOnUse" gradientTransform="matrix(2.232121512540898 0.0 0.0 2.232121512540898 0.0 0.0)" spreadMethod="pad" cx="10.02659975231299" cy="6.2851430325228606" fx="10.02659975231299" fy="6.2851430325228606" r="2.232121467590332"><stop offset="0.0" stop-color="#ffffff"/><stop offset="1.0" stop-color="#b3b3b3"/></radialGradient></defs><path fill="url(#p.8)" d="m25.89088 15.323608l0.9001255 0.52715874l-5.024027 0.4962349l0.37296677 -2.1897898l-1.3978119 -0.2097187l0.023235321 -1.0479965l3.4010334 0.6523075l0.2097187 -0.51263714l-1.7790642 -0.3063345l-1.6452045 -0.41550827l-1.9568348 -0.023662567l0.4396839 0.46095467l0.5155411 2.9400787l-0.23295593 0.1164341l-1.3586025 -3.6933584l-0.38851357 -0.4063673l3.0280666 0l2.0597725 0.48606968l2.8550816 1.0281773l-0.04638672 1.1412811l-2.3989944 0.02314949l-0.25610542 1.2630968l0.43925667 0.0656929l1.0542316 -0.10968685z" fill-rule="evenodd"/></g></svg>