<?xml version="1.0" standalone="no"?>
<!DOCTYPE svg PUBLIC "-//W3C//DTD SVG 20010904//EN"
 "http://www.w3.org/TR/2001/REC-SVG-20010904/DTD/svg10.dtd">
<svg version="1.0" xmlns="http://www.w3.org/2000/svg"
 width="1000.000000pt" height="1000.000000pt" viewBox="0 0 1000.000000 1000.000000"
 preserveAspectRatio="xMidYMid meet">
<metadata>
Created by potrace 1.14, written by Peter Selinger 2001-2017
</metadata>
<g transform="translate(0.000000,1000.000000) scale(0.100000,-0.100000)"
fill="#000000" stroke="none">
<path d="M4730 9929 c-974 -55 -1913 -397 -2685 -978 -358 -269 -727 -638
-996 -996 -521 -692 -854 -1530 -953 -2395 -67 -585 -29 -1167 114 -1745 182
-736 510 -1382 1009 -1985 122 -148 463 -489 611 -611 603 -499 1249 -827
1985 -1009 791 -196 1589 -196 2380 0 736 182 1382 510 1985 1009 148 122 489
463 611 611 499 603 827 1249 1009 1985 227 917 190 1849 -109 2744 -410 1228
-1293 2253 -2446 2841 -772 393 -1651 578 -2515 529z m135 -3935 c-38 -35 -79
-66 -90 -69 -11 -2 -227 -25 -480 -50 -253 -25 -470 -48 -482 -51 -21 -4 -22
-9 -25 -157 -2 -83 -2 -154 -1 -156 1 -2 110 12 241 32 l238 35 183 91 c165
83 187 92 231 89 l48 -3 -219 -148 -219 -148 -248 -30 c-136 -17 -249 -33
-251 -35 -5 -5 -39 -544 -40 -629 l-1 -50 138 137 c126 125 148 142 271 212
134 76 136 79 382 320 l247 243 183 19 c101 11 185 19 187 18 3 -1 -135 -135
-390 -378 -109 -103 -198 -191 -198 -194 0 -3 9 3 19 12 15 14 113 31 428 77
398 58 416 60 732 70 178 5 325 8 327 7 2 -2 -191 -32 -429 -66 -238 -35 -601
-93 -807 -129 -370 -65 -375 -67 -410 -98 -19 -18 -167 -101 -329 -185 l-294
-152 -259 -223 c-251 -217 -264 -226 -431 -318 -165 -92 -177 -96 -299 -122
-114 -24 -144 -26 -280 -23 -114 3 -189 11 -295 32 l-142 28 -26 40 c-15 22
-25 41 -23 43 2 2 113 -11 247 -30 l244 -35 157 14 156 14 100 50 c66 33 137
80 210 140 l109 90 41 108 c40 105 44 128 128 709 48 330 89 606 92 614 4 12
-35 13 -261 7 -219 -6 -308 -13 -513 -41 -205 -28 -428 -68 -439 -78 -1 -2 0
-42 4 -90 l6 -87 36 0 c129 1 324 29 696 100 230 43 421 78 423 76 2 -2 -65
-39 -150 -81 l-152 -78 -216 -44 c-190 -39 -473 -73 -602 -73 -21 0 -28 -5
-28 -20 0 -17 -7 -20 -45 -20 -28 0 -47 5 -52 15 -7 13 -28 13 -158 3 l-148
-11 -38 44 c-21 24 -39 47 -39 50 0 3 74 10 165 15 91 6 168 13 171 17 7 7
-14 96 -25 109 -4 4 -261 28 -571 54 -311 25 -573 49 -584 53 -10 4 252 52
625 114 604 100 680 111 1224 167 701 72 905 82 1985 98 l85 1 -70 -65z m2796
-108 l444 -105 619 -223 618 -223 -6 -230 c-4 -126 -10 -238 -12 -247 -5 -16
-23 -18 -193 -18 -103 0 -336 -3 -518 -7 l-330 -6 -55 -273 -55 -272 96 -15
c90 -14 109 -13 321 9 190 20 266 33 486 85 l262 62 185 -109 c102 -60 183
-111 181 -114 -6 -5 -2147 -219 -2152 -215 -2 1 33 213 77 471 43 258 75 471
71 474 -5 3 -140 25 -302 49 -161 24 -293 44 -294 45 0 0 1 101 4 224 4 194 6
222 20 222 9 0 300 -54 647 -121 346 -66 671 -129 722 -138 l91 -18 46 110
c25 61 45 111 43 113 -1 1 -174 32 -384 68 -299 51 -461 85 -740 155 l-358 90
-425 7 -425 7 25 -29 c13 -16 56 -61 94 -101 l70 -72 107 -613 c59 -337 110
-625 113 -639 4 -23 -1 -29 -45 -49 -27 -13 -50 -22 -52 -19 -2 2 -134 360
-293 794 l-289 790 -83 93 -83 92 654 0 655 0 443 -104z m-6681 -677 c261 -38
607 -85 769 -104 161 -19 294 -35 296 -37 3 -4 -67 -982 -71 -987 -2 -3 -425
229 -1216 665 -108 60 -195 110 -194 111 1 1 270 -101 597 -228 326 -127 622
-241 656 -254 l62 -24 5 27 c4 23 23 199 29 270 2 21 -53 45 -718 323 -844
352 -770 320 -725 314 19 -3 249 -37 510 -76z m1915 22 l160 -6 -23 -101 -24
-101 -171 -17 c-95 -9 -181 -19 -192 -21 -16 -4 -53 -87 -185 -417 l-165 -413
-88 -3 c-87 -3 -88 -3 -82 20 3 13 46 244 95 513 49 270 92 505 96 523 l7 32
206 -1 c113 -1 278 -5 366 -8z m1980 -537 c-5 -2 -179 -45 -385 -94 l-375 -91
-229 -137 -230 -137 -75 -3 c-50 -3 -73 -1 -66 6 6 5 157 102 337 215 l327
206 293 19 c287 19 423 24 403 16z"/>
<path d="M4529 5063 l-24 -28 28 24 c25 23 32 31 24 31 -2 0 -14 -12 -28 -27z"/>
</g>
</svg>
