<?xml version="1.0" standalone="no"?>
<!DOCTYPE svg PUBLIC "-//W3C//DTD SVG 20010904//EN"
 "http://www.w3.org/TR/2001/REC-SVG-20010904/DTD/svg10.dtd">
<svg version="1.0" xmlns="http://www.w3.org/2000/svg"
 width="1000.000000pt" height="1000.000000pt" viewBox="0 0 1000.000000 1000.000000"
 preserveAspectRatio="xMidYMid meet">
<metadata>
Created by potrace 1.14, written by Peter Selinger 2001-2017
</metadata>
<g transform="translate(0.000000,1000.000000) scale(0.100000,-0.100000)"
fill="#000000" stroke="none">
<path d="M4630 9860 c-1029 -88 -1963 -466 -2740 -1109 -184 -153 -488 -457
-641 -641 -918 -1109 -1297 -2557 -1043 -3980 146 -814 510 -1596 1043 -2240
153 -184 457 -488 641 -641 1109 -918 2557 -1297 3980 -1043 814 146 1596 510
2240 1043 184 153 488 457 641 641 590 713 967 1584 1083 2500 57 453 45 995
-34 1445 -305 1743 -1537 3192 -3207 3768 -347 120 -663 192 -1048 238 -193
24 -730 34 -915 19z m165 -3866 c-38 -35 -79 -66 -90 -69 -11 -2 -227 -25
-480 -50 -253 -25 -470 -48 -482 -51 -23 -4 -23 -7 -23 -159 0 -118 3 -155 13
-155 6 0 113 15 237 34 l225 33 182 91 c160 81 189 92 235 92 l51 0 -54 -38
c-30 -21 -129 -89 -221 -150 l-165 -111 -249 -32 c-137 -17 -251 -33 -253 -34
-4 -4 -40 -583 -41 -650 l0 -40 148 147 c133 132 158 152 267 214 115 65 130
78 373 314 l253 245 102 12 c56 6 139 15 185 18 l83 7 -103 -99 c-57 -54 -194
-186 -305 -292 -112 -106 -203 -196 -203 -199 0 -3 13 6 28 21 28 27 44 30
443 88 407 59 420 60 733 70 175 5 320 8 322 7 1 -2 -192 -32 -429 -66 -238
-35 -601 -93 -807 -129 -372 -65 -375 -66 -410 -98 -19 -18 -167 -101 -329
-185 l-294 -153 -257 -222 c-252 -217 -261 -224 -431 -318 -165 -90 -180 -97
-297 -121 -176 -37 -332 -36 -546 4 -87 17 -162 30 -166 30 -8 0 -63 80 -58
85 2 2 113 -12 248 -31 l245 -34 155 14 155 14 110 56 c74 37 143 83 209 138
99 82 100 84 139 178 38 92 42 113 128 695 48 330 91 613 94 629 l5 29 -265
-7 c-219 -6 -308 -13 -513 -41 -201 -27 -431 -68 -438 -78 -1 -1 1 -42 4 -90
l5 -88 136 7 c107 5 230 25 576 90 242 45 441 81 443 79 2 -2 -65 -38 -150
-80 l-152 -78 -216 -44 c-190 -39 -473 -73 -602 -73 -21 0 -28 -5 -28 -20 0
-17 -7 -20 -39 -20 -22 0 -46 7 -55 15 -13 13 -33 14 -160 4 l-146 -12 -39 44
c-21 24 -37 47 -35 50 2 4 61 9 131 13 71 4 147 9 169 12 l41 6 -15 51 c-8 29
-17 55 -21 60 -4 4 -255 28 -557 52 -302 25 -565 48 -584 52 -25 4 136 35 575
109 574 97 646 107 1225 168 677 72 873 84 1545 95 220 3 436 7 480 8 l80 1
-70 -64z m2798 -109 l445 -105 613 -221 c338 -121 616 -222 619 -224 3 -2 1
-114 -4 -249 l-9 -246 -282 0 c-155 0 -390 -3 -521 -7 l-240 -6 -54 -269 c-29
-147 -51 -271 -48 -274 3 -3 46 -11 94 -19 81 -12 110 -11 319 11 198 21 265
32 486 86 l256 61 186 -109 c102 -59 184 -111 181 -113 -5 -5 -2146 -220
-2151 -217 -1 1 34 213 77 471 44 257 78 471 75 473 -5 5 -555 91 -582 92 -20
0 -18 439 1 446 7 3 335 -56 727 -131 393 -75 720 -137 727 -138 12 -2 108
210 100 219 -2 1 -176 32 -388 69 -309 53 -454 83 -736 155 l-350 89 -430 7
-429 7 35 -39 c19 -22 62 -68 96 -104 l61 -65 108 -620 c60 -341 110 -627 112
-635 5 -18 -85 -66 -97 -53 -4 4 -138 363 -296 797 l-289 789 -84 89 -83 88
655 0 655 0 445 -105z m-6683 -676 c261 -38 607 -85 769 -104 162 -19 295 -36
296 -37 4 -4 -67 -982 -70 -986 -2 -2 -250 133 -551 299 -656 361 -874 483
-854 476 18 -6 813 -313 1090 -421 107 -42 201 -77 209 -79 13 -2 19 27 33
153 9 85 14 158 10 161 -4 3 -324 138 -712 299 -388 161 -716 299 -730 306
l-25 13 30 -5 c17 -2 244 -36 505 -75z m1906 22 l170 -6 -23 -101 -24 -101
-185 -18 c-166 -17 -187 -21 -198 -39 -7 -12 -85 -200 -172 -418 l-159 -398
-78 0 c-58 0 -79 4 -83 14 -3 8 31 214 76 458 45 244 89 482 97 531 l16 87
196 -1 c108 -1 273 -4 367 -8z m1989 -537 c-5 -2 -179 -45 -385 -95 l-375 -90
-230 -137 -230 -137 -75 -3 c-68 -3 -73 -2 -55 11 11 8 164 105 339 216 229
144 328 201 350 202 17 0 150 9 296 18 264 18 384 23 365 15z"/>
<path d="M4444 5048 l-19 -23 23 19 c12 11 22 21 22 23 0 8 -8 2 -26 -19z"/>
</g>
</svg>
