<?xml version="1.0" standalone="no"?>
<!DOCTYPE svg PUBLIC "-//W3C//DTD SVG 20010904//EN"
 "http://www.w3.org/TR/2001/REC-SVG-20010904/DTD/svg10.dtd">
<svg version="1.0" xmlns="http://www.w3.org/2000/svg"
 width="1000.000000pt" height="1000.000000pt" viewBox="0 0 1000.000000 1000.000000"
 preserveAspectRatio="xMidYMid meet">
<metadata>
Created by potrace 1.14, written by Peter Selinger 2001-2017
</metadata>
<g transform="translate(0.000000,1000.000000) scale(0.100000,-0.100000)"
fill="#000000" stroke="none">
<path d="M4865 9743 c-1102 -32 -2166 -449 -2985 -1170 -147 -129 -403 -390
-512 -520 -530 -636 -887 -1391 -1033 -2186 -55 -303 -75 -528 -75 -867 0
-550 70 -990 240 -1500 461 -1389 1541 -2486 2924 -2972 l140 -49 171 171 170
170 35 -10 c127 -37 432 -89 650 -112 161 -17 667 -16 820 1 772 85 1423 323
2048 746 l127 87 -500 -501 -500 -501 92 35 c483 179 949 451 1363 793 151
125 481 455 606 607 339 410 622 897 788 1356 l34 95 -499 -500 -500 -501 86
127 c226 335 406 693 527 1048 165 484 232 897 232 1420 0 375 -30 640 -108
980 l-25 105 169 170 168 170 -39 115 c-88 258 -236 585 -374 825 -465 808
-1173 1471 -2010 1880 -609 299 -1222 454 -1910 485 -121 5 -222 9 -225 8 -3
-1 -45 -3 -95 -5z m-34 -3963 c-63 -57 -17 -48 -481 -96 -189 -19 -346 -37
-348 -39 -2 -2 -6 -58 -9 -125 -6 -117 -5 -122 13 -117 10 3 93 16 184 28
l165 22 148 74 c118 59 157 73 185 71 36 -3 34 -5 -131 -118 l-168 -115 -197
-25 -197 -25 -12 -190 c-6 -104 -13 -226 -16 -269 l-5 -79 116 115 c95 93 135
125 212 168 84 47 117 74 290 245 l195 192 138 13 c76 7 140 11 142 8 2 -2
-78 -81 -178 -175 -172 -163 -292 -282 -255 -254 10 7 169 34 355 61 304 43
361 48 573 53 129 2 228 3 220 1 -8 -2 -170 -26 -360 -54 -190 -28 -468 -72
-618 -99 -244 -43 -276 -51 -300 -73 -15 -15 -129 -79 -253 -143 l-227 -117
-200 -173 c-170 -147 -221 -185 -334 -248 -161 -91 -259 -117 -436 -117 -119
0 -359 40 -374 62 -30 44 -30 48 -1 48 15 0 102 -11 192 -25 149 -22 175 -23
285 -13 110 10 128 15 200 50 43 22 117 71 165 109 86 69 87 70 119 157 27 73
42 158 97 542 36 250 68 465 71 478 l5 23 -208 -7 c-200 -6 -517 -42 -678 -77
l-60 -13 3 -69 c1 -38 4 -70 6 -72 12 -12 297 27 565 77 178 34 325 60 327 58
2 -2 -54 -32 -124 -66 -119 -58 -138 -64 -307 -96 -99 -19 -229 -37 -290 -41
-151 -9 -175 -13 -168 -32 5 -13 0 -15 -33 -9 -21 5 -43 11 -49 16 -5 4 -59 4
-119 -2 l-109 -9 -34 33 c-18 17 -33 35 -33 39 0 4 61 10 135 14 l135 7 -7 27
c-13 56 -23 71 -45 72 -110 2 -887 77 -863 82 17 4 230 41 475 82 357 61 538
85 915 126 543 57 805 71 1430 76 l220 2 -54 -49z m2179 -81 c342 -80 350 -82
833 -256 l488 -176 -6 -171 c-4 -94 -8 -181 -11 -193 l-4 -23 -359 0 c-197 0
-378 -3 -403 -6 l-45 -6 -42 -202 c-23 -110 -41 -206 -41 -212 0 -6 33 -15 73
-21 112 -15 384 16 619 72 103 25 195 45 205 45 22 0 314 -170 293 -170 -8 -1
-388 -38 -845 -84 -456 -46 -831 -83 -833 -82 -1 2 25 164 59 361 33 197 58
363 56 369 -3 6 -104 26 -236 45 l-232 35 7 175 c3 97 7 177 8 177 0 1 255
-48 566 -107 311 -60 570 -107 575 -105 17 6 76 159 65 166 -6 3 -137 28 -293
54 -190 32 -376 71 -572 121 l-290 74 -327 3 c-374 3 -344 16 -237 -97 l57
-60 87 -493 c47 -271 83 -496 81 -501 -7 -11 -65 -35 -71 -29 -2 2 -99 263
-215 579 -116 315 -218 594 -227 619 -11 28 -42 71 -82 113 l-64 67 509 0 509
0 345 -81z m-5175 -534 c204 -30 451 -64 550 -75 99 -11 196 -22 215 -25 l36
-6 -28 -381 c-15 -210 -29 -383 -31 -385 -2 -2 -199 104 -438 235 -505 278
-662 367 -634 357 37 -12 428 -163 714 -274 156 -61 286 -110 287 -108 10 9
26 238 18 246 -5 5 -254 111 -554 236 -299 124 -551 231 -560 236 -10 7 -5 8
20 4 19 -3 202 -30 405 -60z m1584 8 c-1 -10 -8 -47 -17 -83 l-17 -65 -142
-15 c-78 -8 -146 -19 -152 -25 -5 -5 -67 -153 -137 -329 l-128 -318 -59 5
c-32 3 -61 8 -64 11 -4 4 106 630 139 789 l10 47 284 0 c264 0 284 -1 283 -17z
m1123 -478 l-292 -73 -181 -107 c-174 -102 -182 -106 -232 -103 l-52 3 258
163 257 162 208 14 c365 24 365 23 34 -59z"/>
</g>
</svg>
